<?xml version="1.0" ?><svg viewBox="0 0 512 512" xmlns="http://www.w3.org/2000/svg"><defs><style>.cls-1{fill:#0e4f7e;}.cls-2{fill:#c0402b;}</style></defs><title/><g id="Google"><g id="Gadmin"><path class="cls-1" d="M480.31,319.72l-49.15-40.48a168.54,168.54,0,0,0,0-46.48l49.15-40.48a15.6,15.6,0,0,0,3.6-19.84l-41.6-72a15.55,15.55,0,0,0-19-6.8L363.6,116a175.63,175.63,0,0,0-40.14-23.17L313,29.88a15.59,15.59,0,0,0-15.38-13H214.41a15.59,15.59,0,0,0-15.38,13L188.54,92.81A175.63,175.63,0,0,0,148.4,116L88.66,93.6a15.55,15.55,0,0,0-19,6.8l-41.6,72a15.6,15.6,0,0,0,3.6,19.84l49.15,40.48a168.54,168.54,0,0,0,0,46.48L31.69,319.72a15.6,15.6,0,0,0-3.6,19.84l41.6,72a15.55,15.55,0,0,0,19,6.8L148.4,396a175.63,175.63,0,0,0,40.14,23.17L199,482.12a15.59,15.59,0,0,0,15.38,13h83.18a15.59,15.59,0,0,0,15.38-13l10.49-62.93A175.63,175.63,0,0,0,363.6,396l59.74,22.38a15.55,15.55,0,0,0,19-6.8l41.6-72A15.6,15.6,0,0,0,480.31,319.72Z"/><path class="cls-1" d="M483.91,339.56l-41.6,72a15.55,15.55,0,0,1-19,6.8L363.6,396a175.63,175.63,0,0,1-40.14,23.17L313,482.12a15.59,15.59,0,0,1-15.38,13H256.66V16.84h40.93a15.59,15.59,0,0,1,15.38,13l10.49,62.93A175.63,175.63,0,0,1,363.6,116L423.34,93.6a15.55,15.55,0,0,1,19,6.8l41.6,72a15.6,15.6,0,0,1-3.6,19.84l-49.15,40.48a168.54,168.54,0,0,1,0,46.48l49.15,40.48A15.6,15.6,0,0,1,483.91,339.56Z"/><path class="cls-2" d="M308.61,318.39v172.2a15.53,15.53,0,0,1-11,4.57H214.41a15.57,15.57,0,0,1-9.78-3.45V318.39Z"/><path class="cls-2" d="M308.61,318.39v172.2a15.53,15.53,0,0,1-11,4.57H256.64V318.39Z"/><path class="cls-2" d="M308.61,154.28v70.53l-52,31.19-52-31.19V154.28A113.72,113.72,0,0,0,142.24,256c0,65.13,53.07,114.35,114.32,114.38a114.28,114.28,0,0,0,52.05-216.1Z"/><path class="cls-2" d="M371,256a113.68,113.68,0,0,0-62.39-101.72v70.53l-52,31.19V370.38A114.51,114.51,0,0,0,371,256Z"/></g></g></svg>
