<?xml version="1.0" ?><svg data-name="Your Icons" id="Your_Icons" viewBox="0 0 48 48" xmlns="http://www.w3.org/2000/svg"><defs><style>.cls-1{fill:#939598;}</style></defs><title/><path class="cls-1" d="M41.62,22.21,39.28,18l0,0,1.57-3.2a3,3,0,0,0-1.38-4L29.7,6.27A2.86,2.86,0,0,0,26,7.4L23.83,11,21.64,7.4A2.91,2.91,0,0,0,19.17,6a2.87,2.87,0,0,0-1.2.27L8.24,10.82a3,3,0,0,0-1.39,4L8.43,18l0,0L6.51,21.39a4,4,0,0,0,1.54,5.45l.34.18v6.21a4,4,0,0,0,2.31,3.62l10,4.49a7.59,7.59,0,0,0,6.19,0l10-4.49a4,4,0,0,0,2.32-3.62V26.94l1.12-.61A3,3,0,0,0,41.62,22.21ZM23.83,25.92Zm1-.52V13.48l12.06,5.76Zm1-13.81,1.91-3.15A.88.88,0,0,1,28.49,8a.86.86,0,0,1,.36.08l9.74,4.55a.94.94,0,0,1,.48.54A1.06,1.06,0,0,1,39,14l-1.63,3.3L25.83,11.74ZM8.6,13.17a.94.94,0,0,1,.48-.54l9.74-4.55A.85.85,0,0,1,19.17,8a.88.88,0,0,1,.76.44l1.9,3.15v.15L10.28,17.26,8.65,14A1,1,0,0,1,8.6,13.17Zm14.23.31V25.4L10.77,19.24ZM8.26,22.36l.94-1.68,12.63,6.46v.29l-.92,1.89a1.86,1.86,0,0,1-1.66,1.06,1.71,1.71,0,0,1-.85-.22L9,25.08a2,2,0,0,1-.93-1.17A2,2,0,0,1,8.26,22.36ZM11.52,35a2,2,0,0,1-1.13-1.79V28.14l7,3.81a3.89,3.89,0,0,0,5.35-1.76l.06-.12V39.9a5.32,5.32,0,0,1-1.27-.39Zm25.76-1.79A2,2,0,0,1,36.15,35l-10,4.49a5.26,5.26,0,0,1-1.28.39V30.07a4.08,4.08,0,0,0,3.32,2.31h.26a3.78,3.78,0,0,0,1.87-.49l7-3.83ZM40,24a1,1,0,0,1-.47.57h-.05L29.27,30.14a1.75,1.75,0,0,1-.86.22,1.84,1.84,0,0,1-1.66-1.06l-.92-1.87v-.29l12.64-6.46,1.4,2.51A1.06,1.06,0,0,1,40,24Z"/></svg>