<?xml version="1.0" encoding="utf-8"?>
<!-- Generator: Adobe Illustrator 16.0.0, SVG Export Plug-In . SVG Version: 6.00 Build 0)  -->
<!DOCTYPE svg PUBLIC "-//W3C//DTD SVG 1.1//EN" "http://www.w3.org/Graphics/SVG/1.1/DTD/svg11.dtd">
<svg version="1.1" id="Capa_1" xmlns="http://www.w3.org/2000/svg" xmlns:xlink="http://www.w3.org/1999/xlink" x="0px" y="0px"
	 width="49.691px" height="28.573px" viewBox="0 0 49.691 28.573" enable-background="new 0 0 49.691 28.573" xml:space="preserve">
<path fill="#b30404" d="M41.888,4.333h-5.853V0H8.183v5.43H0v1.81h8.183v3.675H1.463v1.81h6.719v3.675H2.764v1.81h5.419v6.91h5.202
	c0.271,1.975,1.951,3.455,3.956,3.455s3.685-1.48,3.956-3.455h13.005h1.788h1.518c0.271,1.975,1.951,3.455,3.956,3.455
	s3.685-1.48,3.956-3.455h4.173V13.217C49.583,7.843,46.548,4.333,41.888,4.333z M17.286,26.818c-1.192,0-2.167-0.987-2.167-2.193
	c0-1.207,0.975-2.194,2.167-2.194s2.167,0.987,2.167,2.194C19.454,25.831,18.479,26.818,17.286,26.818z M34.193,23.363H21.079
	c-0.542-1.59-2.005-2.797-3.793-2.797c-1.734,0-3.251,1.152-3.793,2.797H9.917V1.865h24.276v2.468V23.363z M41.454,26.818
	c-1.192,0-2.167-0.987-2.167-2.193c0-1.207,0.976-2.194,2.167-2.194s2.167,0.987,2.167,2.194
	C43.622,25.831,42.646,26.818,41.454,26.818z M47.74,23.363h-2.492c-0.542-1.59-2.005-2.797-3.793-2.797s-3.251,1.152-3.793,2.797
	h-1.68V6.143h5.853c3.63,0,5.853,2.742,5.853,7.13v10.091H47.74z"/>
</svg>
