<?xml version="1.0" encoding="utf-8"?>
<!-- Generator: Adobe Illustrator 16.0.0, SVG Export Plug-In . SVG Version: 6.00 Build 0)  -->
<!DOCTYPE svg PUBLIC "-//W3C//DTD SVG 1.1//EN" "http://www.w3.org/Graphics/SVG/1.1/DTD/svg11.dtd">
<svg version="1.1" id="Capa_1" xmlns="http://www.w3.org/2000/svg" xmlns:xlink="http://www.w3.org/1999/xlink" x="0px" y="0px"
	 width="39.529px" height="40px" viewBox="0 0 39.529 40" enable-background="new 0 0 39.529 40" xml:space="preserve">
<path fill="#b30404" d="M39.528,18.396c0-0.011-0.001-0.022-0.002-0.033c-0.001-0.021-0.004-0.042-0.007-0.063
	c-0.001-0.008-0.002-0.017-0.004-0.025c-0.011-0.061-0.029-0.119-0.054-0.174c-0.001-0.002-0.001-0.004-0.002-0.006l-3.756-8.34
	c0.005-0.036,0.009-0.073,0.009-0.111v-3.9c0-0.433-0.347-0.784-0.775-0.784h-6.883c-0.758-1.4-1.852-2.588-3.188-3.456
	C23.35,0.52,21.593,0,19.784,0c-1.809,0-3.566,0.52-5.082,1.503c-1.336,0.867-2.43,2.055-3.188,3.456H4.631
	c-0.428,0-0.775,0.351-0.775,0.784V9.52L0.067,18.1c0,0.001-0.001,0.003-0.001,0.004c-0.013,0.028-0.023,0.058-0.032,0.087
	c0,0.001-0.001,0.003-0.001,0.005c-0.008,0.026-0.014,0.054-0.019,0.082c-0.001,0.009-0.002,0.018-0.004,0.027
	c-0.003,0.02-0.005,0.041-0.006,0.062c-0.001,0.011-0.001,0.021-0.002,0.032C0.001,18.405,0,18.412,0,18.419v4.68
	c0,0.433,0.347,0.783,0.775,0.783h1.178v15.334C1.953,39.649,2.3,40,2.729,40h34.097c0.428,0,0.775-0.351,0.775-0.784V23.882h1.154
	c0.428,0,0.775-0.351,0.775-0.783v-4.68C39.529,18.411,39.528,18.403,39.528,18.396z M5.406,6.527h6.581
	c0.298,0,0.569-0.173,0.698-0.444c0.634-1.332,1.621-2.459,2.854-3.259c1.266-0.821,2.733-1.255,4.245-1.255
	s2.979,0.434,4.244,1.255c1.233,0.8,2.22,1.927,2.854,3.259c0.129,0.271,0.4,0.444,0.699,0.444h6.581v2.332H5.406V6.527z
	 M5.153,10.426h29.149l3.247,7.209H1.97L5.153,10.426z M36.05,38.433H3.503v-14.55h2.834v11.531c0,0.433,0.347,0.784,0.775,0.784
	h25.329c0.428,0,0.775-0.352,0.775-0.784V23.882h2.834V38.433z M7.888,34.629V23.882h23.778v10.747H7.888z M37.979,22.315h-1.153
	h-4.384H7.113H2.729H1.55v-3.112h36.429V22.315z"/>
<path fill="#B2B2B2" d="M25.742,27.944c-0.292-0.316-0.783-0.332-1.095-0.036l-1.169,1.108c-0.312,0.296-0.328,0.792-0.035,1.108
	c0.153,0.165,0.359,0.248,0.565,0.248c0.19,0,0.381-0.07,0.53-0.212l1.169-1.108C26.019,28.756,26.035,28.26,25.742,27.944z"/>
<path fill="#B2B2B2" d="M14.426,25.585c-0.292-0.316-0.783-0.332-1.095-0.036l-2.181,2.067c-0.312,0.296-0.328,0.792-0.035,1.108
	c0.152,0.165,0.358,0.248,0.565,0.248c0.19,0,0.38-0.071,0.53-0.212l2.18-2.067C14.703,26.397,14.719,25.901,14.426,25.585z"/>
<path fill="#B2B2B2" d="M15.323,27.338l-1.169,1.108c-0.313,0.296-0.328,0.792-0.035,1.108c0.152,0.165,0.358,0.248,0.565,0.248
	c0.19,0,0.38-0.07,0.53-0.212l1.169-1.108c0.312-0.296,0.328-0.792,0.035-1.108C16.125,27.058,15.635,27.042,15.323,27.338z"/>
<path fill="#B2B2B2" d="M27.083,29.356l-2.18,2.067c-0.313,0.296-0.328,0.792-0.036,1.108c0.153,0.165,0.359,0.248,0.566,0.248
	c0.19,0,0.38-0.07,0.53-0.212l2.181-2.067c0.312-0.296,0.328-0.792,0.035-1.108C27.886,29.076,27.396,29.061,27.083,29.356z"/>
</svg>
