<?xml version="1.0" encoding="utf-8"?>
<!-- Generator: Adobe Illustrator 16.0.0, SVG Export Plug-In . SVG Version: 6.00 Build 0)  -->
<!DOCTYPE svg PUBLIC "-//W3C//DTD SVG 1.1//EN" "http://www.w3.org/Graphics/SVG/1.1/DTD/svg11.dtd">
<svg version="1.1" id="Layer_1" xmlns="http://www.w3.org/2000/svg" xmlns:xlink="http://www.w3.org/1999/xlink" x="0px" y="0px"
	 width="291.569px" height="318.061px" viewBox="0 0 291.569 318.061" enable-background="new 0 0 291.569 318.061"
	 xml:space="preserve">
<path fill="#ffffff" d="M0,305.171c0,7.092,5.662,12.89,12.573,12.89H278.99c6.917,0,12.579-5.798,12.579-12.89
	c0-71.296-57.953-132.503-102.188-156.982c21.386-14.391,35.428-39.304,35.428-67.439c0-44.448-35.428-80.75-78.821-80.75
	C102.595,0,66.96,36.075,66.96,80.75c0,28.135,14.048,52.834,35.428,67.439C57.946,172.668,0,233.875,0,305.171z M145.781,25.767
	c29.559,0,53.663,24.706,53.663,54.982s-24.104,54.983-53.663,54.983S92.112,111.026,92.112,80.75S116.223,25.767,145.781,25.767z
	 M145.781,162.146c49.049,0,115.808,57.338,120.208,130.142H25.573C29.973,219.484,96.732,162.146,145.781,162.146z"/>
</svg>
