<?xml version="1.0" encoding="UTF-8"?>
<!DOCTYPE svg PUBLIC "-//W3C//DTD SVG 1.1//EN" "http://www.w3.org/Graphics/SVG/1.1/DTD/svg11.dtd">
<!-- Creator: CorelDRAW 2019 -->
<svg xmlns="http://www.w3.org/2000/svg" xml:space="preserve" width="16.9332mm" height="16.9332mm" version="1.1" style="shape-rendering:geometricPrecision; text-rendering:geometricPrecision; image-rendering:optimizeQuality; fill-rule:evenodd; clip-rule:evenodd"
viewBox="0 0 1693.32 1693.32"
 xmlns:xlink="http://www.w3.org/1999/xlink">
 <defs>
  <style type="text/css">
   <![CDATA[
    .fil0 {fill:#4D4D4D;fill-rule:nonzero}
    .fil1 {fill:#FEFEFE;fill-rule:nonzero}
   ]]>
  </style>
 </defs>
 <g id="Capa_x0020_1">
  <metadata id="CorelCorpID_0Corel-Layer"/>
  <path class="fil0" d="M1153.43 1464.73l-215.69 0 -98.39 -32.53 -97.61 32.53 -216.5 0c-177.87,0 -322.05,-144.18 -322.05,-322.05l0 -628.23c0,-177.87 144.18,-322.05 322.05,-322.05l628.19 0c177.87,0 322.05,144.18 322.05,322.05l0 628.23c0,177.87 -144.18,322.05 -322.05,322.05z"/>
  <path class="fil1" d="M741.14 690.1l0 138.46 -159.56 0 0 181.65 159.56 0 0 454.52 196.39 0 0 -454.52 146.41 0 27.86 -181.65 -174.27 0 0 -117.86c0,-49.7 24.34,-98.14 102.38,-98.14l79.23 0 0 -154.66c0,0 -71.89,-12.28 -140.65,-12.28 -143.51,0 -237.35,87 -237.35,244.48z"/>
 </g>
</svg>
