<?xml version="1.0" ?><svg viewBox="0 0 512 512" xmlns="http://www.w3.org/2000/svg" fill="#b30404"><title/><g data-name="1" id="_1"><path d="M236.68,218.56a15,15,0,0,1-15-15V113.68a35.68,35.68,0,0,0-71.36,0v89.88a15,15,0,0,1-30,0V113.68a65.68,65.68,0,0,1,131.36,0v89.88A15,15,0,0,1,236.68,218.56Z"/><path d="M299.93,450.73H76.15a15,15,0,0,1-15-15V146.33a15,15,0,0,1,15-15H299.93a15,15,0,0,1,15,15V250.92a15,15,0,1,1-30,0V161.33H91.15v259.4H299.93a15,15,0,1,1,0,30Z"/><path d="M443.41,450.75H222.09a15,15,0,0,1-14.91-16.68L228,249.24a15,15,0,0,1,14.9-13.32H422.56a15,15,0,0,1,14.91,13.32l20.84,184.83a15,15,0,0,1-14.9,16.68Zm-204.53-30H426.62L409.16,265.92H256.34Z"/><path d="M332.75,358.33a54.58,54.58,0,0,1-54.52-54.51,15,15,0,1,1,30,0,24.52,24.52,0,0,0,49,0,15,15,0,1,1,30,0A54.58,54.58,0,0,1,332.75,358.33Z"/></g></svg>