<?xml version="1.0" encoding="UTF-8"?>
<!DOCTYPE svg PUBLIC "-//W3C//DTD SVG 1.1//EN" "http://www.w3.org/Graphics/SVG/1.1/DTD/svg11.dtd">
<!-- Creator: CorelDRAW 2019 -->
<svg xmlns="http://www.w3.org/2000/svg" xml:space="preserve" width="16.9332mm" height="16.9332mm" version="1.1" style="shape-rendering:geometricPrecision; text-rendering:geometricPrecision; image-rendering:optimizeQuality; fill-rule:evenodd; clip-rule:evenodd"
viewBox="0 0 1693.32 1693.32"
 xmlns:xlink="http://www.w3.org/1999/xlink">
 <defs>
  <style type="text/css">
   <![CDATA[
    .fil0 {fill:#4D4D4D;fill-rule:nonzero}
    .fil1 {fill:#FEFEFE;fill-rule:nonzero}
   ]]>
  </style>
 </defs>
 <g id="Capa_x0020_1">
  <metadata id="CorelCorpID_0Corel-Layer"/>
  <path class="fil0" d="M1170.36 1490.13l-628.19 0c-177.87,0 -322.05,-144.18 -322.05,-322.01l0 -628.23c0,-177.87 144.18,-322.05 322.05,-322.05l628.19 0c177.87,0 322.05,144.18 322.05,322.05l0 628.23c0,177.83 -144.18,322.01 -322.05,322.01z"/>
  <path class="fil1" d="M1051.35 618.42c-23.89,0 -43.18,19.37 -43.18,43.21 0,23.85 19.29,43.18 43.18,43.18 23.84,0 43.18,-19.33 43.18,-43.18 0,-23.84 -19.34,-43.21 -43.18,-43.21z"/>
  <path class="fil1" d="M859.29 971.51c-64.1,0 -116.24,-52.14 -116.24,-116.24 0,-64.1 52.14,-116.2 116.24,-116.2 64.1,0 116.24,52.1 116.24,116.2 0,64.1 -52.14,116.24 -116.24,116.24zm0 -297.7c-100.04,0 -181.47,81.42 -181.47,181.46 0,100.05 81.43,181.47 181.47,181.47 100.05,0 181.44,-81.42 181.44,-181.47 0,-100.04 -81.39,-181.46 -181.44,-181.46z"/>
  <path class="fil1" d="M709.19 556.19c-83.82,0 -152.02,68.19 -152.02,152.01l0 294.15c0,83.82 68.2,152.01 152.02,152.01l294.18 0c83.82,0 151.97,-68.19 151.97,-152.01l0 -294.15c0,-83.82 -68.15,-152.01 -151.97,-152.01l-294.18 0zm294.18 667.49l-294.18 0c-122.03,0 -221.34,-99.27 -221.34,-221.33l0 -294.15c0,-122.02 99.31,-221.33 221.34,-221.33l294.18 0c122.02,0 221.3,99.31 221.3,221.33l0 294.15c0,122.06 -99.28,221.33 -221.3,221.33z"/>
 </g>
</svg>
