<svg id="Capa_1" xmlns="http://www.w3.org/2000/svg" xmlns:xlink="http://www.w3.org/1999/xlink" viewBox="0 0 250 95">
  <style>
    .st0,.st1,.st2,.st3{fill-rule:evenodd;clip-rule:evenodd}.st1,.st2,.st3{fill:#fff}.st2,.st3{fill:#222221}.st3{fill:#b30000}
  </style>
  <g id="Mamut_DCH_2_">
    <path class="st0" d="M75.4 58.6c4.2.1 6.8-3.1 8.3-6.8.3-.7 1.2-3.6 1-3.8.3-.5.5-2.2.4-3 0-1 0-2 .1-2.9v-2.5c.1-1.7-.7-4.4-1.6-5.9-1.5-2.6-2.4-3-5-4.4-.6-.3-1.6-.8-1.3-1.6l.1-.1c.8-.6 2.8.1 3.6.6 2.8 1.7 6.3 3.4 8 6.3 2 3.3 2.8 7.6 3.4 11.4v3.3c0 5-.9 8.1-3.2 11.4-.4.6-.8 1.1-1.2 1.7-.8.6-1.9.9-2.9 1.3-4.7 2.1-9.3 4.2-15.1 1.8-1 .9-2 1.8-3 2.6l-1.4 2c-1.1.4-2.3.9-3.4 1.3-1 .4-1.9.8-2.9 1.2-.8.4-1.2.9-2.1 1.1-1.7-.1-3.3-.1-5-.2h-1.9c-.2 1.5-1.6 2.6-2.4 3.7-1 1.4-.1 1.5-.6 2.8-.4 1.1-2.3 1.2-2.9 1-.8-.3-2.8.1-3.7-.3-1.2-.5-2.1-2.2-1.8-3.5.7-.2 1.9-.5 2.5-.9.2-1.4.7-2.8.8-4.1-1.6-.4-3.2-.8-4.7-1.2-3.6-.9-8.4-1.5-11.1-5.6-2.6 1.1-3.9.8-6.9 1.5-2 .4-5.4-.7-5.8-.4-1.5-.8-3.4-1.5-4.9-2.2-1-.4-2-.7-2.8-1.3-2.3-1.7-3.5-6-4.6-8.7-.5-1.3-.4-5.3-.3-6.9-.1-.1.5-1.2.3-1.5.5-1 1.1-3.2.8-3.9 1-3.3 2.5-6.6 4.4-9 1-1.3 2.8-2.2 4-3.1 1.1-.8 4-3 5.7-1.7.1.1.1.2.1.5-.6 1.6-2.5 1.6-3.7 2.5-.9.7-1.8 1.7-2.2 2.8-.9 2-1.2 3.8-1.7 5.9-.2.9.3 2 .1 3.3-.3 1.9 0 3.8.3 5 .3 1.2.2 2 .6 3.1 1.5 5 4.7 8.5 11 7.7-.8-1.9-1.7-3.7-2.5-5.6-.2-.8-.5-1.5-.7-2.3-.4-.7-.4-3.8-.5-4.7l-.6-2.2c0-1 0-2 .1-3 0-2.7-.1-5.1 1.2-6.9.6-.9 1.2-1.7 1.7-2.6.5-.9.8-2 1.5-2.8l3.3-3c1.2-1.9 2.4-3.8 3.7-5.6 2.1-2.2 4.9-3.7 7.8-5 .6-.3 3.2-.7 4-.3 2.4-.9 4.6-.8 7.2-1.3 1.6 0 3.2 0 4.8.1 2.1.8 6.6 1.1 9.2 2.7 1.1.7 1.8 1.9 2.8 2.7.6.3 1.1.6 1.7.9l2 1.7c1.4.9 2.7 1.7 3.8 2.9 1.7 1.7 2.6 4.4 3.7 6.7.5.9 1 1.8 1.5 2.6.3.8 1.1 4.9.9 5.5.4 1.5.8 3.3.6 5.4-.3 2.7-1.4 6.1-1.6 8.8v.1c-.2.4-.6 2.2-.4 2.6-.2.5-.4 1.4-.6 2.3z"/>
    <path class="st1" d="M51.1 15.1c-1 .7-3.7-.1-4.8.1-2.6.6-5.5.5-7.4 1.3l-3.3 1.2c-4.1 2.3-7.6 5.9-10.4 9.5-.9.9-1.8 1.8-2.8 2.7-.7 1.5-1.5 3.1-2.2 4.6-1.4 3.1-1.2 5-1.2 9.5 0 1 0 2.1-.1 3.1.4 1.9 1.4 3.8 2.1 5.8.3 1 1.5 5.5 2.1 5.3.6 0 1.2-.3 1.9-.5 4.5-1.7 4.7-3.8 7.6-6.8 1.3-1.3 2.8-2.5 3.2-4.7-1.5-.3-1.6-2.3-2.2-3.4-.9-1.6-2.7-2.8-3.3-4.7-.3-1 .5-2.8.5-3.5 0-.6-.6-1-.8-1.8 1.3-.9 2.2-2 3.3-3 .6-.3 1.2-.6 1.9-1 .4-.3 2.8.3 4.2-.2.2-.7.7-1.1.4-1.8-.5 0-1.4-.4-1.5-.6-.1-.6.4-1.3.6-1.7 1.1-2 .4-1.9 2.7-2.9.8-.4 1.4-1.1 2.4-1.4.4-.1 3.7-.6 4.8-.2.7.4 1.3.8 2 1.2.5.1.9.3 1.4.5l.6.9c.3.1.6.3.9.4.5.5 2 2.7 1.6 3.6-.5.1-.8.2-1 .6-.2.9.5 1.8 1.2 2.1.3.1 2.8.2 3.5-.1.4.1.9.3 1.3.4.6.6 1.1 1.2 1.7 1.8.9.5 1.9.9 2.4 1.8l-.7 1.9c.2.4.5 2.8.3 3.5-.7 1.8-2.1 2.8-3.1 4.3-1.1 1.8-.2 3.4-2.8 3.8.4 2.5 2.7 3.9 4 5.5.6.8 1.2 1.7 1.7 2.5 2.8 3 6.1 3.7 10.1 4 1-3.4 1.1-5.8 1.8-8.9 0-1.4 0-2.7-.1-4.1.1-1.7.8-2.7.4-4.7-.4-2.4-1.6-5.4-2.6-8.1-.8-2.1-1.1-4.3-2.2-6-1.8-2.7-4.7-4.3-7.1-6-.9-.5-1.9-.9-2.8-1.4h-.2c-.8-.8-2-1.2-3-1.8l-2.2-1.6-2.1-.9c-.7 0-1.7-.1-2.7-.1z"/>
    <path class="st1" d="M44.1 24.4c-.7.3-1.2.4-2.1.5-.2.3-.3.5-.5.8.2.3.5.8.3 1.3s-.7.5-1 .9c-.1.3-.3.7-.4 1l-.1.1c-.5.4-1.3.4-1.7 1 0 .3-.1.6-.1.8.6-.4 1-.8 2.1-.8l.6.6c.1-.1.3-.1.4-.2l.7-1c.6 0 1.1-.3 1.6-.1.1 0 .1.1.2.1v.3c-.8.5-1.8 2.2-2 3.2 0 .9 0 1.8-.1 2.6-.1.6-.6 1.1-.8 1.8-.6-.2-.4-.8-.9-1.2-.1 0-.3.1-.4.1-.5 1-.7 2.5-1.3 3.4-.6.9-3.3 3-2.6 4.8l.3.3c1.1-.3 3.1-2.7 4.5-.7h.1c.3-1 1-.5 1.7-1 .4-.3.2-1.1.4-1.7.8-.4 1.2-.9 1.9-1.4.2 0 .3 0 .4.1 0 1.4-.5 2-1.4 2.4.2.2.4.5.6.7 0 .5-.1.6-.3.8-1.1.3-2.9 1.5-2.2 3.3.1.1.1.2.2.3.4-.2.6-.4 1.2-.5.1 0 .2.1.3.1 0 1.6-1.2 1.4-1.6 2.5-.5 1.4-.6 5 .6 5.7h.1c.1-1.6 1.2-3.9 2.3-4.6.5-.1.9-.3 1.4-.4.2-.6-.3-1.8.1-2.4.7-.9 2.9-1.9 3.3-2.7V45c-.1-.1-.1-.2-.2-.3-.9 0-1.7 0-2.2-.3v-.3c.2-.5.5-.9.7-1.4.5-.7 1.7-.5 1.7-1.7-.4-1-1.2-1.1-1.6-1.9-.2-1 .8-.8 1.2-1.4.1-.6.3-1.1.4-1.7.2-1.3-1.3-1.7-1.5-3 0 0 0-.1.1-.1.4 0 .9.2 1.1-.1 0-.1 0-.2.1-.3-.4-.4-1-.9-1.2-1.5.1 0 .1-.1.2-.1l.6-.3c-.5-.4-1-.9-1.5-1.3-.3-.5-.4-.9-.8-1.3 0-.6 0-1 .4-1.2.9-.3 2.6.8 2.9 1.4.4.7.2 1.9 1 2.2.6.2.8-.5 1.1-.6h.8c0-1.1-.7-2-1.5-2.2l-1.1-.3c-.3-.3-.4-.8-.8-1l-2.1-.6c-1.3-.7-.9-1.3-3.6-1.3zM15.1 28.1C12 29.4 9 30.9 7.2 33.5c-.7 1.3-1.4 2.6-2.1 3.8-.6 1-1.3 1.9-1.7 3.1-.5 1.7-.4 3.9-.8 5.5-.6 2.5-.6 9.9 1.5 10.3 0-1.9-.2-3.3-.5-5.1-.2-1.3.4-2.4.6-3.4.4-1.8.3-3.7.8-5.2.8-2.3 2.6-4 3.6-6 .4-1.2.8-2.5 1.2-3.7 1.1-2.2 3.9-3.7 6.2-4.6v-.1h-.9zM78.7 28.1v.5c6.2 1.3 8.7 11.5 7.2 19.1-.9 4.6-3.1 9.3-6.9 10.9-1.4.6-2.7.5-4.6.8a12.8 12.8 0 0 1-9.5-2.6c-.8-.6-1.4-1.5-2.2-2.1-2 .4.3 5.2.8 5.8 1.8 1.6 6.7 3.7 9.5 4.3 1 .2 2.7.6 3.9.3.6-.2 3.4-1.6 4-2.1 1.4-.9 2.5-2.3 3.4-3.8.3-.7.6-1.3.8-2 .4-.5.9-1 1.3-1.5 0-.6 0-1.2.1-1.8.3-1.4.7-3 1.1-4.6.6-1.6 1.2-3.3 1.9-4.9.3-.9.1-2.2.3-3.1.1-.5.1-1.1.2-1.6-.2-1.1-.8-1.8-1.2-2.6-.5-1-1-2.1-1.5-3.1-1.1-1.6-2.8-2.4-4.4-3.5-1.2-1.1-2.3-2.2-4.2-2.4z"/>
    <path class="st1" d="M40 31.4c-.2.3-.4.3-.4.8.2.3.3.5.6.7l.3-.6c-.1-.4-.2-.8-.5-.9zM52.7 31.7c-.2.3-.5.7-.4 1 0 .1 0 .2.1.3 0 0 .1 0 .1.1.6-.1.7-.4.8-.9-.1-.2-.2-.3-.4-.4 0-.1-.1-.1-.2-.1z"/>
    <path class="st2" d="M45.5 34.7c.1.1.2.1.3.2 0 .2 0 .4-.1.6-.3.7-1.2.8-1.7 1.3-1.1 1.1-.4 2.7-2.2 3.6-.1-.1-.2-.1-.3-.2 0-2.3.8-1.6 1.6-2.7.3-.4.1-1.5.4-1.9.6-.2 1.5-.5 2-.9z"/>
    <path class="st1" d="M38.6 44c-2.2 1.2-1.7 3.8-3.1 5.7-.8 1.2-2.1 2-3 3.1l-1.7 2.3c-2 2.4-4.9 3.9-8.6 4.7-1.1.2-3 .5-4.5.3-.8-.3-1.7-.5-2.5-.8 2 2.6 7 3.9 11.6 2.5s8.2-5.6 10.5-9.5c.9-1.6 1.5-3.3 1.9-5.5.3-1 .2-2.6-.6-2.8zM39.5 51.9c-.7 3.4-5.2 9.1-7.8 10.9-1 .7-2.3 1-3.5 1.7v.1c.8.4 1.6.9 2.4 1.3 1.7 1 4.1 2 5.8 2.1.8.2 2.7 1.3 3.6 1.5.7.3 2.1.3 2.8.1.6-2 .6-6.3-.2-8.1-.7-1.7-2.2-3.3-2.6-5.2-.3-1.3 0-3.7-.5-4.4zM54.5 52.2c.2 4.2-1.4 8.9-2.7 13.1-.6 1.9-.1 3.9-.9 5.6 1.9.3 3.1.8 4.3 1.1 1.6.3 2.9-.6 4-1.2.4-.2 1.5-.2 2.1-.6.6-.5 1.1-1.1 1.7-1.6 1.9-1.3 3.8-2.5 5.8-3.8v-.1c-3.4-1.3-7.2-2-9.7-5.1-1.2-1.8-2.4-3.7-3.5-5.5-.4-.5-.7-1.2-1.1-1.9z"/>
  </g>
  <g id="Logo">
    <path id="XMLID_38_" class="st3" d="M222.9 15.7c-10.3 3.2-20.6 6.4-30.8 9.6v.7c.5 2 .6 4 2.3 4.8 1.9.7 10.1-2.5 12.7-3l.1.1c.2 5.3 2 9.3 2.9 13.4v7.6c1.6.2 5.8 2.5 7.2 1.3 1.1-1.2.8-4.6.4-6.5l-2.1-17.9c3.8-.2 6.3-1.6 9.9-2v-.6c-.7-3 .1-6.2-2.1-7.6-.3.1-.4.1-.5.1z"/>
    <path id="XMLID_37_" class="st3" d="M91.1 19.5c-3.1 2.4-3.1 5.8-4.5 9.8-2.6 7.5-5.1 15-7.7 22.5-.7 1.9-3.2 8-2.5 10.2 2.9 3.1 5.8 6.2 8.8 9.2h.1c.2-2.1 1.4-3.1 2-4.6l4.5-10.8c.8-1.9.8-4.2 2.3-5.3 1.1 4.1 2.2 8.2 3.3 12.2 1.1.5 1.8 1.1 3.3 1.3 1.7-4.1 3.4-8.2 5.1-12.2h.1c.9 5.2 1.7 10.4 2.6 15.6.4 2.2-.1 4.8 1.1 6.1 4.2-2 8.4-4 12.5-6-2.3-15.3-4.5-30.6-6.8-46-1.2-.5-1.8-1.2-3.3-1.4-3.4 4.7-6.7 9.4-10.1 14.1-.1 0-.2-.1-.3-.1-.5-2.1-9.1-14.1-10.5-14.6z"/>
    <path id="XMLID_36_" class="st3" d="M183.7 24.2c-2.1 5-4.1 10.1-6.2 15.1-.2-.1-.4-.3-.6-.4-1.3-4.8-5.6-8.6-7.9-12.8-.1 0-.3.1-.4.1-.5.3-1.1.7-1.6 1-.7 2.9-1.5 5.8-2.2 8.6-.2 1.3 4.4 12.4 5.2 13.3l1.5-6.3c.1 0 .2.1.3.1 2.3 4.2 4.6 8.4 6.9 12.5h.1c.9-3.6 3-7.1 4.6-10.2l.3.1 2.4 10.5c2-1.8 4-3.5 6.1-5.3-2.9-8.7-5.7-17.5-8.5-26.3z"/>
    <path id="XMLID_35_" class="st3" d="M236.1 44.4c-1.7 0-3.2-.6-5-.6v-4.2l.3-12c-3.9.3-7.8.6-11.7.8-.2 4.9-.3 9.9-.5 14.8.2 2.1.5 4.1.7 6.2-.5 1-1 1.9-1.4 2.9-.2 5-.3 10.1-.5 15.1 2.8 1.3 4.5 1.5 8.2.6.9-4.5 1.7-9 2.6-13.5 1.6.1 2.2.9 3.5 1.3 0 3.3-1.3 11 0 13l.9.6c1.5 0 7.6-.5 8.2-1.1 2.6-13.3 5.1-26.6 7.7-39.9-.6-.5-1.2-1.1-1.9-1.6l-9.5.6-1.5 15.8-.1 1.2z"/>
    <path id="XMLID_34_" class="st3" d="M160.2 33.7c-.7 3.9-3.1 7.5-4.5 10.8h-.3c-.5-1.4-5.5-8.4-6.6-8.9-.8-.1-1.5-.3-2.3-.4-1 4.6-2 9.2-3.1 13.8-.1 1.5.8 2.7.6 4.2-1.4 1.8-2.4 3.8-2.6 6.9 1.6 1.1 3.2 2.1 4.7 3.2l3-10.5c3 1.5 5.4 3.8 8.1 5.6.7-2.1 1.4-4.1 2-6.2 0 .1.1.2.1.3 2.4 2.1 4 6.7 5.3 9.8h.1c1.1-2.6 3.4-4.5 5.2-6.5-.2-2.2-1.5-4.2-2.3-6.1-1.3-3.5-2.7-7-4-10.5-.7-1.9-1.4-4.8-3.4-5.5z"/>
    <path class="st3" d="M128.9 29.6c-1.2.7-2.3 1.4-3.5 2.2-5.3 4.1-5.2 10.2-3.5 17.7.7 3-.1 6.2 2.6 7.2 3.2 1.2 5.4-1.9 7.6-2.4.1 1.2.8 2 1.7 2.5 3.2 1.1 6.9-2.4 8.2-4.3.1-1.7 0-3.6-.7-4.6h-.1c-.5 1.9-2.3 2.2-4.3 2.6.8-6.8 3.5-11.7 5.5-17-.5-.8-2-1.5-3.2-1.2-.5 1-1.1 2-1.6 3-.1 0-.2-.1-.3-.1-.3-4-4.1-5.6-8.4-5.6zm.7 9.7c6 1.6 2.4 12.7-3.2 11.2-2.9-4 .8-9.3 3.2-11.2zM197.6 31.8c-1.2.8-2.5 1.6-3.7 2.4-3.8 5.1-1.6 11.6.5 16.7 1.1 2.5 3 7.5 6.9 6.9 4.8-.6 8.3-10.9 6.8-17.1-1.2-5.2-3.9-9-10.5-8.9zm.6 7.7c4.1.2 4 4.3 2.3 6.9-4.6.2-4.4-4.6-2.3-6.9z"/>
  </g>
  <g id="Cuerno">
    <defs>
      <path id="XMLID_2_" d="M94 47.9s-2.3.4-2.5.5c-.1.1-2.2 1.2-2.2 1.2l-1.1-.6h-.9l-.9.2-1.2.8-1.2-.7-2.1-.8-1.6-11.7-2-5.5-1-3.6.6-1.9 4.5-.4 5.4 1.5 2.9 2.8 3.8 6.5 2.7 9.7.7 2.7-3.9-.7z"/>
    </defs>
    <clipPath id="XMLID_15_">
      <use xlink:href="#XMLID_2_" overflow="visible"/>
    </clipPath>
    <g id="Mamut_DCH_1_" clip-path="url(#XMLID_15_)">
      <path class="st0" d="M76.3 58.6c4.2.1 6.8-3.1 8.3-6.8.3-.7 1.2-3.6 1-3.8.3-.5.5-2.2.4-3 0-1 0-2 .1-2.9v-2.5c.1-1.7-.7-4.4-1.6-5.9-1.5-2.6-2.4-3-5-4.4-.5-.2-1.5-.8-1.2-1.6l.1-.1c.8-.6 2.8.1 3.6.6 2.8 1.7 6.3 3.4 8 6.3 2 3.3 2.8 7.6 3.4 11.4v3.3c0 5-.9 8.1-3.2 11.4-.4.6-.8 1.1-1.2 1.7-.8.6-1.9.9-2.9 1.3-4.7 2.1-9.3 4.2-15.1 1.8-1 .9-2 1.8-3 2.6l-1.4 2c-1.1.4-2.3.9-3.4 1.3-1 .4-1.9.8-2.9 1.2-.8.4-1.2.9-2.1 1.1-1.7-.1-3.3-.1-5-.2h-1.9c-.2 1.5-1.6 2.6-2.4 3.7-1 1.4-.1 1.5-.6 2.8-.4 1.1-2.3 1.2-2.9 1-.8-.3-2.8.1-3.7-.3-1.2-.5-2.1-2.2-1.8-3.5.7-.2 1.9-.5 2.5-.9.2-1.4.7-2.8.8-4.1-1.6-.4-3.2-.8-4.7-1.2-3.6-.9-8.4-1.5-11.1-5.6-2.6 1.1-3.9.8-6.9 1.5-2 .4-5.4-.7-5.8-.4-1.5-.8-3.4-1.5-4.9-2.2-1-.4-2-.7-2.8-1.3-2.3-1.7-3.5-6-4.6-8.7-.5-1.3-.4-5.3-.3-6.9-.1-.1.5-1.2.3-1.5.5-1 1.1-3.2.8-3.9 1-3.3 2.5-6.6 4.4-9 1-1.3 2.8-2.2 4-3.1 1.1-.8 4-3 5.7-1.7.1.1.1.2.1.5-.6 1.6-2.5 1.6-3.7 2.5-.9.7-1.8 1.7-2.2 2.8-.9 2-1.2 3.8-1.7 5.9-.2.9.3 2 .1 3.3-.3 1.9 0 3.8.3 5 .3 1.2.2 2 .6 3.1 1.5 5 4.7 8.5 11 7.7-.8-1.9-1.7-3.7-2.5-5.6-.2-.8-.5-1.5-.7-2.3-.4-.7-.4-3.8-.5-4.7l-.6-2.2c0-1 0-2 .1-3 0-2.7-.1-5.1 1.2-6.9.6-.9 1.2-1.7 1.7-2.6.5-.9.8-2 1.5-2.8l3.3-3c1.2-1.9 2.4-3.8 3.7-5.6 2.1-2.2 4.9-3.7 7.8-5 .6-.3 3.2-.7 4-.3 2.4-.9 4.6-.8 7.2-1.3 1.6 0 3.2 0 4.8.1 2.1.8 6.6 1.1 9.2 2.7 1.1.7 1.8 1.9 2.8 2.7.6.3 1.1.6 1.7.9l2 1.7c1.4.9 2.7 1.7 3.8 2.9 1.7 1.7 2.6 4.4 3.7 6.7.5.9 1 1.8 1.5 2.6.3.8 1.1 4.9.9 5.5.4 1.5.8 3.3.6 5.4-.3 2.7-1.4 6.1-1.6 8.8v.1c-.2.4-.6 2.2-.4 2.6-.3.5-.5 1.4-.7 2.3z"/>
      <path class="st1" d="M52 15.1c-1 .7-3.7-.1-4.8.1-2.6.6-5.5.5-7.4 1.3l-3.3 1.2c-4.1 2.3-7.6 5.9-10.4 9.5-.9.9-1.8 1.8-2.8 2.7-.7 1.5-1.5 3.1-2.2 4.6-1.4 3.1-1.2 5-1.2 9.5 0 1 0 2.1-.1 3.1.4 1.9 1.4 3.8 2.1 5.8.3 1 1.5 5.5 2.1 5.3.6 0 1.2-.3 1.9-.5 4.5-1.7 4.7-3.8 7.6-6.8 1.3-1.3 2.8-2.5 3.2-4.7-1.5-.3-1.6-2.3-2.2-3.4-.9-1.6-2.7-2.8-3.3-4.7-.3-1 .5-2.8.5-3.5 0-.6-.6-1-.8-1.8 1.3-.9 2.2-2 3.3-3 .6-.3 1.2-.6 1.9-1 .4-.3 2.8.3 4.2-.2.2-.7.7-1.1.4-1.8-.5 0-1.4-.4-1.5-.6-.1-.6.4-1.3.6-1.7 1.1-2 .4-1.9 2.7-2.9.8-.4 1.4-1.1 2.4-1.4.4-.1 3.7-.6 4.8-.2.7.4 1.3.8 2 1.2.5.1.9.3 1.4.5l.6.9c.3.1.6.3.9.4.5.5 2 2.7 1.6 3.6-.5.1-.8.2-1 .6-.2.9.5 1.8 1.2 2.1.3.1 2.8.2 3.5-.1.4.1.9.3 1.3.4.6.6 1.1 1.2 1.7 1.8.9.5 1.9.9 2.4 1.8l-.7 1.9c.2.4.5 2.8.3 3.5-.7 1.8-2.1 2.8-3.1 4.3-1.1 1.8-.2 3.4-2.8 3.8.4 2.5 2.7 3.9 4 5.5.6.8 1.2 1.7 1.7 2.5 2.8 3 6.1 3.7 10.1 4 1-3.4 1.1-5.8 1.8-8.9 0-1.4 0-2.7-.1-4.1.1-1.7.8-2.7.4-4.7-.4-2.4-1.6-5.4-2.6-8.1-.8-2.1-1.1-4.3-2.2-6-1.8-2.7-4.7-4.3-7.1-6-.9-.5-1.9-.9-2.8-1.4H62c-.8-.8-2-1.2-3-1.8l-2.2-1.6-2.1-.9c-.8 0-1.7-.1-2.7-.1z"/>
      <path class="st1" d="M45 24.4c-.7.3-1.2.4-2.1.5-.2.3-.3.5-.5.8.2.3.5.8.3 1.3s-.7.5-1 .9c-.1.3-.3.7-.4 1l-.1.1c-.5.4-1.3.4-1.7 1 0 .3-.1.6-.1.8.6-.4 1-.8 2.1-.8l.6.6c.1-.1.3-.1.4-.2l.7-1c.6 0 1.1-.3 1.6-.1.1 0 .1.1.2.1v.3c-.8.5-1.8 2.2-2 3.2 0 .9 0 1.8-.1 2.6-.1.6-.6 1.1-.8 1.8-.6-.2-.4-.8-.9-1.2-.1 0-.3.1-.4.1-.5 1-.7 2.5-1.3 3.4-.6.9-3.3 3-2.6 4.8l.3.3c1.1-.3 3.1-2.7 4.5-.7h.1c.3-1 1-.5 1.7-1 .4-.3.2-1.1.4-1.7.8-.4 1.2-.9 1.9-1.4.2 0 .3 0 .4.1 0 1.4-.5 2-1.4 2.4.2.2.4.5.6.7 0 .5-.1.6-.3.8-1.1.3-2.9 1.5-2.2 3.3.1.1.1.2.2.3.4-.2.6-.4 1.2-.5.1 0 .2.1.3.1 0 1.6-1.2 1.4-1.6 2.5-.5 1.4-.6 5 .6 5.7h.1c.1-1.6 1.2-3.9 2.3-4.6.5-.1.9-.3 1.4-.4.2-.6-.3-1.8.1-2.4.7-.9 2.9-1.9 3.3-2.7V45c-.1-.1-.1-.2-.2-.3-.9 0-1.7 0-2.2-.3v-.3c.2-.5.5-.9.7-1.4.5-.7 1.7-.5 1.7-1.7-.4-1-1.2-1.1-1.6-1.9-.2-1 .8-.8 1.2-1.4.1-.6.3-1.1.4-1.7.2-1.3-1.3-1.7-1.5-3 0 0 0-.1.1-.1.4 0 .9.2 1.1-.1 0-.1 0-.2.1-.3-.4-.4-1-.9-1.2-1.5.1 0 .1-.1.2-.1l.6-.3c-.5-.4-1-.9-1.5-1.3-.3-.5-.4-.9-.8-1.3 0-.6 0-1 .4-1.2.9-.3 2.6.8 2.9 1.4.4.7.2 1.9 1 2.2.6.2.8-.5 1.1-.6h.8c0-1.1-.7-2-1.5-2.2l-1.1-.3c-.3-.3-.4-.8-.8-1l-2.1-.6c-1.4-.7-.9-1.3-3.6-1.3zM16 28.1c-3.1 1.3-6.1 2.9-7.9 5.5-.7 1.3-1.4 2.6-2.1 3.8-.6 1-1.3 1.9-1.7 3.1-.5 1.7-.4 3.9-.8 5.5-.7 2.4-.6 9.8 1.5 10.2 0-1.9-.2-3.3-.5-5.1-.2-1.3.4-2.4.6-3.4.4-1.8.2-3.6.8-5.2.8-2.3 2.6-4 3.6-6 .4-1.2.8-2.5 1.2-3.7 1.1-2.2 3.9-3.7 6.2-4.6v-.1H16zM79.6 28.1v.5c6.2 1.3 8.7 11.5 7.2 19.1-.9 4.6-3.1 9.2-6.9 10.8-1.4.6-2.7.5-4.6.8a12.8 12.8 0 0 1-9.5-2.6c-.8-.6-1.4-1.5-2.2-2.1-2 .4.3 5.2.8 5.8 1.8 1.6 6.7 3.7 9.5 4.3 1 .2 2.7.6 3.9.3.6-.2 3.4-1.6 4-2.1 1.4-.9 2.5-2.3 3.4-3.8.3-.7.6-1.3.8-2 .4-.5.9-1 1.3-1.5 0-.6 0-1.2.1-1.8.3-1.4.7-3 1.1-4.6.6-1.6 1.2-3.3 1.9-4.9.3-.9.1-2.2.3-3.1.1-.5.1-1.1.2-1.6-.2-1.1-.8-1.8-1.2-2.6-.5-1-1-2.1-1.5-3.1-1.1-1.6-2.8-2.4-4.4-3.5-1.2-1-2.3-2.1-4.2-2.3z"/>
      <path class="st1" d="M40.9 31.4c-.2.3-.4.3-.4.8.2.3.3.5.6.7l.3-.6c-.1-.4-.2-.8-.5-.9zM53.6 31.7c-.2.3-.5.7-.4 1 0 .1 0 .2.1.3 0 0 .1 0 .1.1.6-.1.7-.4.8-.9-.1-.2-.2-.3-.4-.4 0-.1-.1-.1-.2-.1z"/>
      <path class="st2" d="M46.4 34.7c.1.1.2.1.3.2 0 .2 0 .4-.1.6-.3.7-1.2.8-1.7 1.3-1.1 1.1-.4 2.7-2.2 3.6-.1-.1-.2-.1-.3-.2 0-2.3.8-1.6 1.6-2.7.3-.4.1-1.5.4-1.9.6-.2 1.5-.5 2-.9z"/>
      <path class="st1" d="M39.5 44c-2.2 1.2-1.7 3.8-3.1 5.7-.8 1.2-2.1 2-3 3.1l-1.7 2.3c-2 2.4-4.9 3.9-8.6 4.7-1.1.2-3 .5-4.5.3-.8-.3-1.7-.5-2.5-.8 2 2.6 7 3.9 11.6 2.5s8.2-5.6 10.5-9.5c.9-1.6 1.5-3.3 1.9-5.5.2-1 .2-2.6-.6-2.8zM40.3 51.9c-.7 3.4-5.2 9.1-7.8 10.9-1 .7-2.3 1-3.5 1.7v.1c.8.4 1.6.9 2.4 1.3 1.7 1 4.1 2 5.8 2.1.8.2 2.7 1.3 3.6 1.5.7.3 2.1.3 2.8.1.6-2 .6-6.3-.2-8.1-.7-1.7-2.2-3.3-2.6-5.2-.2-1.3 0-3.7-.5-4.4zM55.4 52.2c.2 4.2-1.4 8.9-2.7 13.1-.6 1.9-.1 3.9-.9 5.6 1.9.3 3.1.8 4.3 1.1 1.6.3 2.9-.6 4-1.2.4-.2 1.5-.2 2.1-.6.6-.5 1.1-1.1 1.7-1.6 1.9-1.3 3.8-2.5 5.8-3.8v-.1c-3.4-1.3-7.2-2-9.7-5.1-1.2-1.8-2.4-3.7-3.5-5.5-.4-.5-.8-1.2-1.1-1.9z"/>
    </g>
  </g>
  <g id="Fractura">
    <path id="XMLID_1_" fill="#fff" d="M85.1 51.1l2-1.5 1.8.9.9-.7 1.5.1 1-1.3h1l3.3-.2-4.1-.5-3.9 1.1-1.5-.4-1.6 1.2-.3.2-3-1.3z"/>
    <path id="XMLID_55_" d="M85.1 50.9l2-1.5 1.8.9.9-.7 1.4.1 1.1-1.3h4.3l-4.1-.7-3.8 1.1-1.6-.4-1.6 1.2-.3.2-3-1.1z"/>
  </g>
</svg>
