<?xml version="1.0" encoding="UTF-8"?>
<!DOCTYPE svg PUBLIC "-//W3C//DTD SVG 1.1//EN" "http://www.w3.org/Graphics/SVG/1.1/DTD/svg11.dtd">
<!-- Creator: CorelDRAW 2019 -->
<svg xmlns="http://www.w3.org/2000/svg" xml:space="preserve" width="16.9332mm" height="16.9332mm" version="1.1" style="shape-rendering:geometricPrecision; text-rendering:geometricPrecision; image-rendering:optimizeQuality; fill-rule:evenodd; clip-rule:evenodd"
viewBox="0 0 1693.32 1693.32"
 xmlns:xlink="http://www.w3.org/1999/xlink">
 <defs>
  <style type="text/css">
   <![CDATA[
    .fil0 {fill:#4D4D4D;fill-rule:nonzero}
    .fil1 {fill:#FEFEFE;fill-rule:nonzero}
   ]]>
  </style>
 </defs>
 <g id="Capa_x0020_1">
  <metadata id="CorelCorpID_0Corel-Layer"/>
  <path class="fil0" d="M1170.37 1456.26l-628.19 0c-177.87,0 -322.05,-144.18 -322.05,-322.05l0 -628.22c0,-177.84 144.18,-322.02 322.05,-322.02l628.19 0c177.87,0 322.05,144.18 322.05,322.02l0 628.22c0,177.87 -144.18,322.05 -322.05,322.05z"/>
  <path class="fil1" d="M1203.5 609.14c-21.8,9.84 -45.86,15.8 -69.32,19.75 11.11,-1.87 27.48,-22.05 34.08,-30.19 10.01,-12.49 18.31,-26.64 23,-41.95 0.6,-1.23 1.02,-2.72 -0.18,-3.63 -1.48,-0.6 -2.47,-0.29 -3.63,0.31 -26.25,14.04 -53.34,24.24 -82.24,31.44 -2.36,0.6 -4.16,0 -5.64,-1.52 -2.4,-2.68 -4.66,-5.22 -7.2,-7.34 -12.13,-10.3 -25.11,-18.41 -39.79,-24.38 -19.26,-7.86 -40.29,-11.18 -61.03,-9.84 -20.18,1.31 -40.04,7.02 -57.96,16.37 -17.96,9.38 -33.97,22.44 -46.71,38.17 -13.19,16.3 -22.93,35.49 -27.9,55.88 -4.84,19.69 -4.41,39.12 -1.49,59.02 0.46,3.32 0.15,3.74 -2.82,3.32 -112.89,-16.83 -206.44,-57.19 -282.4,-143.76 -3.31,-3.74 -5.04,-3.74 -7.79,0.28 -33.23,49.81 -17.11,129.86 24.44,169.19 5.51,5.26 11.19,10.52 17.33,15.28 -2.26,0.46 -29.88,-2.54 -54.47,-15.28 -3.32,-2.08 -4.98,-0.88 -5.26,2.86 -0.28,5.4 0.14,10.34 0.88,16.19 6.42,50.49 41.38,97.2 89.26,115.43 5.67,2.4 11.95,4.48 18.09,5.51 -10.9,2.4 -22.15,4.12 -53.44,1.66 -3.88,-0.75 -5.37,1.23 -3.88,4.93 23.53,64.1 74.26,83.19 112.29,94.05 5.08,0.89 10.19,0.89 15.27,2.09 -0.32,0.45 -0.6,0.45 -0.88,0.88 -12.63,19.22 -56.34,33.55 -76.7,40.64 -37.04,12.98 -77.32,18.8 -116.48,14.92 -6.25,-0.92 -7.59,-0.85 -9.28,0 -1.69,1.06 -0.18,2.54 1.8,4.16 7.97,5.26 16.01,9.92 24.27,14.4 24.87,13.19 50.76,23.67 77.86,31.15 139.91,38.63 297.5,10.23 402.55,-94.12 82.48,-81.95 111.41,-195.02 111.41,-308.19 0,-4.41 5.26,-6.88 8.33,-9.21 21.48,-16.12 38.77,-35.42 54.78,-56.97 3.64,-4.84 3.64,-9.14 3.64,-10.94 0,-0.28 0,-0.56 0,-0.56 0,-1.8 0,-1.27 -2.79,0z"/>
 </g>
</svg>
