<?xml version="1.0" encoding="UTF-8"?>
<!DOCTYPE svg PUBLIC "-//W3C//DTD SVG 1.1//EN" "http://www.w3.org/Graphics/SVG/1.1/DTD/svg11.dtd">
<!-- Creator: CorelDRAW 2019 -->
<svg xmlns="http://www.w3.org/2000/svg" xml:space="preserve" width="16.9332mm" height="16.9332mm" version="1.1" style="shape-rendering:geometricPrecision; text-rendering:geometricPrecision; image-rendering:optimizeQuality; fill-rule:evenodd; clip-rule:evenodd"
viewBox="0 0 1693.32 1693.32"
 xmlns:xlink="http://www.w3.org/1999/xlink">
 <defs>
  <style type="text/css">
   <![CDATA[
    .fil0 {fill:#4D4D4D;fill-rule:nonzero}
    .fil1 {fill:#FEFEFE;fill-rule:nonzero}
   ]]>
  </style>
 </defs>
 <g id="Capa_x0020_1">
  <metadata id="CorelCorpID_0Corel-Layer"/>
  <path class="fil0" d="M1161.9 1456.26l-628.19 0c-177.87,0 -322.05,-144.18 -322.05,-322.05l0 -628.19c0,-177.88 144.18,-322.05 322.05,-322.05l628.19 0c177.87,0 322.05,144.17 322.05,322.05l0 628.19c0,177.87 -144.18,322.05 -322.05,322.05z"/>
  <path class="fil1" d="M957.29 846.59l-173 85.62c-6.77,3.63 -29.85,-1.23 -29.85,-8.96l0 -175.71c0,-7.8 23.25,-12.75 30.03,-8.82l165.62 90.05c6.99,4 14.26,14.04 7.2,17.82zm226.94 -103.26c0,-83.33 -67.55,-150.88 -150.88,-150.88l-385.87 0c-83.32,0 -150.88,67.55 -150.88,150.88l0 179.6c0,83.36 67.56,150.93 150.88,150.93l385.87 0c83.33,0 150.88,-67.57 150.88,-150.93l0 -179.6z"/>
 </g>
</svg>
